<svg id="Layer_1" data-name="Layer 1" xmlns="http://www.w3.org/2000/svg" viewBox="0 0 300 300"><defs><style>.cls-1{fill:#747272;}</style></defs><g id="Add_Receipt_icon" data-name="Add Receipt icon"><path id="Path_187" data-name="Path 187" class="cls-1" d="M88.36,152.56h15.7V119.08h33.45v-15.7H104.06V69.94H88.36v33.44H54.93v15.7H88.37Z"/><path id="Path_188" data-name="Path 188" class="cls-1" d="M222.43,42H104.36V56.08H222.44A8.57,8.57,0,0,1,231,64.63V235.37a8.55,8.55,0,0,1-8.55,8.55H109.15a8.58,8.58,0,0,1-8.56-8.55V174H86.51v61.42A22.7,22.7,0,0,0,109.14,258H222.43a22.69,22.69,0,0,0,22.64-22.63V64.56A22.7,22.7,0,0,0,222.43,42Z"/></g></svg>