<svg id="Layer_1" data-name="Layer 1" xmlns="http://www.w3.org/2000/svg" viewBox="0 0 300 300"><defs><style>.cls-1{fill:#747272;}</style></defs><g id="Profile_icon" data-name="Profile icon"><path id="Path_189" data-name="Path 189" class="cls-1" d="M163.68,158A58.78,58.78,0,0,0,150,42h0a58.77,58.77,0,0,0-13.66,116,98.65,98.65,0,0,0-86.75,95.42V258H63.11v-4.53a87,87,0,0,1,173.79-.09V258h13.48v-4.65A98.62,98.62,0,0,0,163.68,158Zm31.74-57.12A45.42,45.42,0,0,1,150,146.23h0a45.37,45.37,0,1,1,45.39-45.38Z"/></g></svg>